<svg width="84" height="84" viewBox="0 0 84 84" fill="none" xmlns="http://www.w3.org/2000/svg">
<circle cx="42" cy="42" r="42" fill="#00C3CE" fill-opacity="0.1"/>
<circle cx="42.3496" cy="42.35" r="36.75" fill="#00C3CE" fill-opacity="0.1"/>
<circle cx="42" cy="42" r="31.5" fill="#00C3CE"/>
<path d="M42 57C33.7148 57 27 50.2852 27 42C27 33.7148 33.7148 27 42 27C50.2852 27 57 33.7148 57 42C57 50.2852 50.2852 57 42 57ZM40.5938 42C40.5938 42.4688 40.8281 42.9082 41.2207 43.1191L46.8457 46.8691C47.4902 47.3496 48.3633 47.1738 48.7441 46.5293C49.2246 45.8848 49.0488 45.0117 48.4043 44.5781L43.4062 41.25V34.0312C43.4062 33.252 42.7793 32.625 41.9473 32.625C41.2207 32.625 40.541 33.252 40.541 34.0312L40.5938 42Z" fill="white"/>
</svg>
