<svg width="100%" height="100%" viewBox="0 0 84 84" fill="none" xmlns="http://www.w3.org/2000/svg" fit="" preserveAspectRatio="xMidYMid meet" focusable="false">
<circle cx="42" cy="42" r="42" fill="#00C3CE" fill-opacity="0.1"></circle>
<circle cx="42.3501" cy="42.3501" r="36.75" fill="#00C3CE" fill-opacity="0.1"></circle>
<circle cx="42" cy="42" r="31.5" fill="#00C3CE"></circle>
<g filter="url('/bike?id=6263#filter0_d_266_636')">
<path d="M37.9816 54.5976C37.2912 54.5976 36.6317 54.3217 36.1448 53.8265L26.639 44.1557C25.6421 43.1396 25.6549 41.5098 26.6699 40.5091C27.6849 39.5137 29.3156 39.524 30.3125 40.5401L37.9069 48.2664L53.6185 30.944C54.5793 29.8893 56.2075 29.8145 57.2559 30.7687C58.3095 31.7255 58.3867 33.3553 57.431 34.4127L39.8879 53.7542C39.4114 54.2803 38.7416 54.5846 38.0331 54.6001C38.0151 54.5976 37.9996 54.5976 37.9816 54.5976Z" fill="white"></path>
</g>
<defs>
<filter id="filter0_d_266_636" x="22.8999" y="28.1001" width="38.2" height="30.5" filterUnits="userSpaceOnUse" color-interpolation-filters="sRGB">
<feFlood flood-opacity="0" result="BackgroundImageFix"></feFlood>
<feColorMatrix in="SourceAlpha" type="matrix" values="0 0 0 0 0 0 0 0 0 0 0 0 0 0 0 0 0 0 127 0" result="hardAlpha"></feColorMatrix>
<feOffset dy="1"></feOffset>
<feGaussianBlur stdDeviation="1.5"></feGaussianBlur>
<feColorMatrix type="matrix" values="0 0 0 0 0 0 0 0 0 0 0 0 0 0 0 0 0 0 0.2 0"></feColorMatrix>
<feBlend mode="normal" in2="BackgroundImageFix" result="effect1_dropShadow_266_636"></feBlend>
<feBlend mode="normal" in="SourceGraphic" in2="effect1_dropShadow_266_636" result="shape"></feBlend>
</filter>
</defs>
</svg>